<svg style="fill-rule:evenodd;clip-rule:evenodd;stroke-linejoin:round;stroke-miterlimit:2;" xml:space="preserve" xmlns:xlink="http://www.w3.org/1999/xlink" xmlns="http://www.w3.org/2000/svg" version="1.1" viewBox="0 0 1070 423" height="100%" width="100%">
    <g transform="matrix(4.16667,0,0,4.16667,828.07,339.11)">
        <g id="Ebene-1">
            <path style="fill:rgb(29,29,27);fill-rule:nonzero;" d="M0,-59.808C-32.365,-56.866 -30.903,-5.65 -1.103,-1.693C34.664,3.056 38.622,-63.319 0,-59.808M-106.895,14.138C-110.972,17.796 -124.843,15.528 -129.186,12.53C-130.517,11.61 -133.697,7.751 -134.907,6.281C-140.069,0.01 -151.795,-20.188 -159.045,-21.945C-163.521,-23.03 -166.747,-19.351 -168.503,-15.706C-172.592,-7.217 -169.502,0.544 -170.625,9.084C-171.207,13.508 -175.356,15.46 -179.366,15.808C-183.881,16.2 -192.784,16.14 -194.083,10.529C-195.109,6.097 -195.523,-4.023 -195.631,-8.856C-196.032,-26.893 -193.776,-45.48 -194.092,-63.712C-194.153,-67.235 -195.756,-71.847 -193.614,-75.154C-190.363,-80.172 -175.745,-80.517 -172.401,-75.893C-170.468,-73.218 -171.378,-65.121 -171.166,-61.677C-170.974,-58.542 -170.878,-52.412 -169.35,-50.035C-166.006,-44.834 -159.309,-50.354 -156.161,-53.219C-148.443,-60.244 -141.606,-72.226 -132.032,-76.975C-126.629,-79.655 -111.013,-80.154 -105.247,-78.138C-102.274,-77.099 -99.837,-73.37 -98.049,-70.871C-94.166,-65.446 -85.688,-48.176 -81.057,-45.478C-78.046,-43.724 -73.544,-47.29 -71.537,-49.484C-65.86,-55.69 -56.874,-75.937 -49.832,-78.15C-45.499,-79.513 -36.969,-80.195 -32.899,-78.092C-31.174,-77.2 -29.786,-74.68 -28.331,-74.181C-23.489,-72.519 -18.488,-76.812 -13.985,-78.25C23.747,-90.305 62.007,-59.977 53.804,-20.059C45.344,21.111 -11.762,30.497 -37.854,0.106C-46.388,-9.833 -46.692,-17.233 -48.863,-29.269C-49.116,-30.67 -50.048,-36.064 -51.556,-36.05C-54.911,-36.019 -64.079,-20.977 -64.683,-17.727C-66.322,-8.904 -64.377,1.576 -65.83,10.528C-66.39,13.974 -68.677,14.566 -71.671,15.164C-75.216,15.872 -86.493,16.287 -89.043,13.823C-90.029,12.87 -90.657,10 -90.785,8.586C-91.595,-0.361 -89.214,-10.336 -92.156,-18.948C-95.832,-29.712 -106.542,-42.238 -112.942,-52.02C-115.251,-55.548 -116.235,-60.789 -121.847,-59.332C-122.763,-59.094 -126.026,-56.305 -126.974,-55.482C-129.203,-53.548 -139.782,-42.821 -140.167,-40.745C-140.868,-36.968 -139.877,-35.434 -137.902,-32.589C-128.963,-19.716 -115.225,-6.272 -107.426,6.757C-106.093,8.983 -104.455,11.948 -106.895,14.138"></path>
        </g>
    </g>
</svg>
